STARTFONT 2.1
COMMENT
COMMENT Converted from OpenType font "FreeUniversal-Regular.ttf" by "otf2bdf 3.0".
COMMENT
FONT -FreeType-FreeUniversal-Medium-R-Normal--19-190-72-72-P-92-ISO10646-1
SIZE 19 72 72
FONTBOUNDINGBOX 26 26 -1 -5
STARTPROPERTIES 19
FOUNDRY "FreeType"
FAMILY_NAME "FreeUniversal"
WEIGHT_NAME "Medium"
SLANT "R"
SETWIDTH_NAME "Normal"
ADD_STYLE_NAME ""
PIXEL_SIZE 19
POINT_SIZE 190
RESOLUTION_X 72
RESOLUTION_Y 72
SPACING "P"
AVERAGE_WIDTH 92
CHARSET_REGISTRY "ISO10646"
CHARSET_ENCODING "1"
FONT_ASCENT 19
FONT_DESCENT 4
COPYRIGHT "(FreeUniversal) Copyright (c) Stephen Wilson 2009    a modification of:    Original Font (SIL Sophia)  Copyright (c) SIL International, 1994-2008.    "
_OTF_FONTFILE "FreeUniversal-Regular.ttf"
_OTF_PSNAME "FreeUniversal-Regular"
ENDPROPERTIES
CHARS 243
STARTCHAR 0020
ENCODING 32
SWIDTH 315 0
DWIDTH 6 0
BBX 0 0 0 0
BITMAP
ENDCHAR
STARTCHAR 0021
ENCODING 33
SWIDTH 421 0
DWIDTH 8 0
BBX 2 14 3 0
BITMAP
C0
C0
C0
C0
C0
C0
C0
C0
C0
C0
C0
00
00
C0
ENDCHAR
STARTCHAR 0022
ENCODING 34
SWIDTH 473 0
DWIDTH 9 0
BBX 6 6 1 8
BITMAP
CC
CC
4C
4C
44
44
ENDCHAR
STARTCHAR 0023
ENCODING 35
SWIDTH 736 0
DWIDTH 14 0
BBX 12 14 1 0
BITMAP
0660
0440
0440
0CC0
7FF0
0880
1980
1900
FFE0
1300
3300
2200
2200
6600
ENDCHAR
STARTCHAR 0024
ENCODING 36
SWIDTH 578 0
DWIDTH 11 0
BBX 9 18 1 -2
BITMAP
0800
0800
3E00
6B00
C980
C800
C800
F800
7E00
0F00
0980
0980
C980
C980
6B00
3E00
0800
0800
ENDCHAR
STARTCHAR 0025
ENCODING 37
SWIDTH 947 0
DWIDTH 18 0
BBX 16 14 1 0
BITMAP
7810
6C10
C620
C660
C640
CC80
7C80
013C
0366
0263
0663
0463
0866
083C
ENDCHAR
STARTCHAR 0026
ENCODING 38
SWIDTH 736 0
DWIDTH 14 0
BBX 12 14 1 0
BITMAP
1E00
3300
6100
6300
3300
3C00
3C60
6C60
C660
C360
C1C0
C0C0
63E0
3E30
ENDCHAR
STARTCHAR 0027
ENCODING 39
SWIDTH 368 0
DWIDTH 7 0
BBX 1 6 3 8
BITMAP
80
80
80
80
80
80
ENDCHAR
STARTCHAR 0028
ENCODING 40
SWIDTH 368 0
DWIDTH 7 0
BBX 3 17 2 -3
BITMAP
20
60
60
40
C0
C0
C0
C0
C0
C0
C0
C0
C0
40
60
60
20
ENDCHAR
STARTCHAR 0029
ENCODING 41
SWIDTH 368 0
DWIDTH 7 0
BBX 3 17 2 -3
BITMAP
80
80
C0
C0
40
40
60
60
60
60
60
60
40
C0
C0
80
80
ENDCHAR
STARTCHAR 002A
ENCODING 42
SWIDTH 631 0
DWIDTH 12 0
BBX 8 7 2 7
BITMAP
24
24
18
FF
18
3C
66
ENDCHAR
STARTCHAR 002B
ENCODING 43
SWIDTH 1000 0
DWIDTH 19 0
BBX 11 12 4 0
BITMAP
0600
0600
0600
0600
0600
0600
FFE0
0600
0600
0600
0600
0600
ENDCHAR
STARTCHAR 002C
ENCODING 44
SWIDTH 263 0
DWIDTH 5 0
BBX 3 5 1 -2
BITMAP
60
60
C0
C0
80
ENDCHAR
STARTCHAR 002D
ENCODING 45
SWIDTH 368 0
DWIDTH 7 0
BBX 5 1 1 4
BITMAP
F8
ENDCHAR
STARTCHAR 002E
ENCODING 46
SWIDTH 263 0
DWIDTH 5 0
BBX 2 2 2 0
BITMAP
C0
C0
ENDCHAR
STARTCHAR 002F
ENCODING 47
SWIDTH 421 0
DWIDTH 8 0
BBX 6 15 1 -1
BITMAP
0C
08
08
18
10
10
30
30
20
20
60
40
40
C0
80
ENDCHAR
STARTCHAR 0030
ENCODING 48
SWIDTH 578 0
DWIDTH 11 0
BBX 9 14 1 0
BITMAP
3C00
6700
4300
C100
C180
C180
C180
C180
C180
C180
C100
4300
7700
3C00
ENDCHAR
STARTCHAR 0031
ENCODING 49
SWIDTH 578 0
DWIDTH 11 0
BBX 5 14 2 0
BITMAP
38
78
F8
98
18
18
18
18
18
18
18
18
18
18
ENDCHAR
STARTCHAR 0032
ENCODING 50
SWIDTH 578 0
DWIDTH 11 0
BBX 8 14 1 0
BITMAP
3C
66
C3
C3
03
03
06
0C
1C
38
30
60
C0
FF
ENDCHAR
STARTCHAR 0033
ENCODING 51
SWIDTH 578 0
DWIDTH 11 0
BBX 9 14 1 0
BITMAP
3E00
7700
6180
C180
0180
0300
1C00
0700
0300
0180
C180
C180
6300
3E00
ENDCHAR
STARTCHAR 0034
ENCODING 52
SWIDTH 578 0
DWIDTH 11 0
BBX 9 14 1 0
BITMAP
0700
0700
0F00
1B00
1300
3300
6300
6300
C300
FF80
FF80
0300
0300
0300
ENDCHAR
STARTCHAR 0035
ENCODING 53
SWIDTH 578 0
DWIDTH 11 0
BBX 9 14 1 0
BITMAP
FF00
C000
C000
C000
DE00
F300
C100
C180
0180
0180
C180
C300
6600
3C00
ENDCHAR
STARTCHAR 0036
ENCODING 54
SWIDTH 578 0
DWIDTH 11 0
BBX 9 14 1 0
BITMAP
1E00
6300
4180
C000
C000
DE00
FF00
C300
C180
C180
C180
4100
6700
1E00
ENDCHAR
STARTCHAR 0037
ENCODING 55
SWIDTH 578 0
DWIDTH 11 0
BBX 8 14 1 0
BITMAP
FF
03
03
02
06
06
0C
0C
0C
18
18
18
30
30
ENDCHAR
STARTCHAR 0038
ENCODING 56
SWIDTH 578 0
DWIDTH 11 0
BBX 9 14 1 0
BITMAP
3E00
6300
C180
C180
C180
6300
3E00
6300
C180
C180
C180
C180
6300
3E00
ENDCHAR
STARTCHAR 0039
ENCODING 57
SWIDTH 578 0
DWIDTH 11 0
BBX 9 14 1 0
BITMAP
3E00
6300
C100
C180
C180
C180
6380
7D80
0180
0180
C100
4300
6600
3C00
ENDCHAR
STARTCHAR 003A
ENCODING 58
SWIDTH 263 0
DWIDTH 5 0
BBX 2 10 2 0
BITMAP
C0
C0
00
00
00
00
00
00
C0
C0
ENDCHAR
STARTCHAR 003B
ENCODING 59
SWIDTH 263 0
DWIDTH 5 0
BBX 3 12 1 -2
BITMAP
60
60
00
00
00
00
00
60
60
40
C0
C0
ENDCHAR
STARTCHAR 003C
ENCODING 60
SWIDTH 1000 0
DWIDTH 19 0
BBX 12 10 4 1
BITMAP
0030
00E0
0700
1C00
E000
C000
3800
0E00
01C0
0030
ENDCHAR
STARTCHAR 003D
ENCODING 61
SWIDTH 1000 0
DWIDTH 19 0
BBX 11 5 4 4
BITMAP
FFE0
0000
0000
0000
FFE0
ENDCHAR
STARTCHAR 003E
ENCODING 62
SWIDTH 1000 0
DWIDTH 19 0
BBX 12 10 4 1
BITMAP
8000
7000
1C00
0380
0060
0070
01C0
0E00
7000
C000
ENDCHAR
STARTCHAR 003F
ENCODING 63
SWIDTH 473 0
DWIDTH 9 0
BBX 8 14 0 0
BITMAP
3C
7E
C3
03
03
02
06
0C
18
18
18
00
00
18
ENDCHAR
STARTCHAR 0040
ENCODING 64
SWIDTH 1000 0
DWIDTH 19 0
BBX 17 18 1 -4
BITMAP
07F000
1C3C00
300600
600300
63F300
C67100
C43180
CC3180
CC3180
CC3180
CC3180
C43300
465F00
639E00
600000
300000
1E1000
07F000
ENDCHAR
STARTCHAR 0041
ENCODING 65
SWIDTH 736 0
DWIDTH 14 0
BBX 14 14 0 0
BITMAP
0300
0780
0780
04C0
0CC0
0CC0
1860
1860
1FF0
3FF0
3018
6018
6018
C00C
ENDCHAR
STARTCHAR 0042
ENCODING 66
SWIDTH 684 0
DWIDTH 13 0
BBX 10 14 2 0
BITMAP
FF00
C180
C0C0
C0C0
C0C0
C180
FE00
C380
C0C0
C0C0
C0C0
C0C0
C380
FF00
ENDCHAR
STARTCHAR 0043
ENCODING 67
SWIDTH 684 0
DWIDTH 13 0
BBX 11 14 1 0
BITMAP
1F80
39C0
6060
4060
C000
C000
C000
C000
C000
C000
4060
6060
31C0
1F00
ENDCHAR
STARTCHAR 0044
ENCODING 68
SWIDTH 736 0
DWIDTH 14 0
BBX 11 14 2 0
BITMAP
FE00
C380
C0C0
C0C0
C060
C060
C060
C060
C060
C060
C0C0
C0C0
C380
FE00
ENDCHAR
STARTCHAR 0045
ENCODING 69
SWIDTH 631 0
DWIDTH 12 0
BBX 9 14 2 0
BITMAP
FF80
C000
C000
C000
C000
C000
FF80
C000
C000
C000
C000
C000
C000
FF80
ENDCHAR
STARTCHAR 0046
ENCODING 70
SWIDTH 578 0
DWIDTH 11 0
BBX 8 14 2 0
BITMAP
FF
C0
C0
C0
C0
C0
FF
C0
C0
C0
C0
C0
C0
C0
ENDCHAR
STARTCHAR 0047
ENCODING 71
SWIDTH 736 0
DWIDTH 14 0
BBX 12 14 1 0
BITMAP
0F80
38E0
6030
4000
C000
C000
C1F0
C030
C030
C030
6030
6030
3870
0FE0
ENDCHAR
STARTCHAR 0048
ENCODING 72
SWIDTH 736 0
DWIDTH 14 0
BBX 10 14 2 0
BITMAP
C0C0
C0C0
C0C0
C0C0
C0C0
C0C0
FFC0
C0C0
C0C0
C0C0
C0C0
C0C0
C0C0
C0C0
ENDCHAR
STARTCHAR 0049
ENCODING 73
SWIDTH 263 0
DWIDTH 5 0
BBX 2 14 2 0
BITMAP
C0
C0
C0
C0
C0
C0
C0
C0
C0
C0
C0
C0
C0
C0
ENDCHAR
STARTCHAR 004A
ENCODING 74
SWIDTH 578 0
DWIDTH 11 0
BBX 8 14 1 0
BITMAP
03
03
03
03
03
03
03
03
03
03
C3
C3
66
3C
ENDCHAR
STARTCHAR 004B
ENCODING 75
SWIDTH 684 0
DWIDTH 13 0
BBX 10 14 2 0
BITMAP
C180
C300
C600
CC00
D800
F000
F000
D800
DC00
CE00
C700
C300
C180
C0C0
ENDCHAR
STARTCHAR 004C
ENCODING 76
SWIDTH 578 0
DWIDTH 11 0
BBX 8 14 2 0
BITMAP
C0
C0
C0
C0
C0
C0
C0
C0
C0
C0
C0
C0
FF
FF
ENDCHAR
STARTCHAR 004D
ENCODING 77
SWIDTH 947 0
DWIDTH 18 0
BBX 14 14 2 0
BITMAP
E01C
E01C
F03C
F03C
D86C
D86C
D86C
CCCC
CCCC
C48C
C78C
C78C
C30C
C30C
ENDCHAR
STARTCHAR 004E
ENCODING 78
SWIDTH 736 0
DWIDTH 14 0
BBX 11 14 2 0
BITMAP
E060
E060
F060
F860
D860
DC60
CC60
C660
C660
C360
C360
C1E0
C1E0
C0E0
ENDCHAR
STARTCHAR 004F
ENCODING 79
SWIDTH 736 0
DWIDTH 14 0
BBX 12 14 1 0
BITMAP
1F80
39C0
6060
4020
C030
C030
C030
C030
C030
C030
4020
6060
39C0
0F00
ENDCHAR
STARTCHAR 0050
ENCODING 80
SWIDTH 631 0
DWIDTH 12 0
BBX 9 14 2 0
BITMAP
FE00
C300
C180
C180
C180
C180
C300
FE00
C000
C000
C000
C000
C000
C000
ENDCHAR
STARTCHAR 0051
ENCODING 81
SWIDTH 789 0
DWIDTH 15 0
BBX 14 14 1 0
BITMAP
1F80
39C0
6060
4020
C030
C030
C030
C030
C030
C030
4020
6060
39C0
0FFC
ENDCHAR
STARTCHAR 0052
ENCODING 82
SWIDTH 631 0
DWIDTH 12 0
BBX 9 14 2 0
BITMAP
FE00
C300
C180
C180
C180
C300
FE00
C300
C300
C100
C180
C180
C180
C180
ENDCHAR
STARTCHAR 0053
ENCODING 83
SWIDTH 631 0
DWIDTH 12 0
BBX 10 14 1 0
BITMAP
3F00
6180
C0C0
C000
C000
F000
7F00
1F80
01C0
00C0
C0C0
C0C0
6180
3E00
ENDCHAR
STARTCHAR 0054
ENCODING 84
SWIDTH 684 0
DWIDTH 13 0
BBX 11 14 1 0
BITMAP
FFE0
0C00
0C00
0C00
0C00
0C00
0C00
0C00
0C00
0C00
0C00
0C00
0C00
0C00
ENDCHAR
STARTCHAR 0055
ENCODING 85
SWIDTH 789 0
DWIDTH 15 0
BBX 11 14 2 0
BITMAP
C060
C060
C060
C060
C060
C060
C060
C060
C060
C060
C060
60C0
71C0
1F00
ENDCHAR
STARTCHAR 0056
ENCODING 86
SWIDTH 631 0
DWIDTH 12 0
BBX 12 14 0 0
BITMAP
E030
6070
6060
3060
3060
30C0
18C0
18C0
1980
0D80
0D00
0F00
0700
0600
ENDCHAR
STARTCHAR 0057
ENCODING 87
SWIDTH 947 0
DWIDTH 18 0
BBX 18 14 0 0
BITMAP
C0E0C0
60E0C0
61E180
61A180
21B180
313180
333300
331300
1B1B00
1A1A00
1E1E00
0E0E00
0C0E00
0C0C00
ENDCHAR
STARTCHAR 0058
ENCODING 88
SWIDTH 684 0
DWIDTH 13 0
BBX 12 14 1 0
BITMAP
E060
60C0
31C0
3980
1B00
0F00
0E00
0F00
1B00
1980
31C0
60C0
E0E0
C070
ENDCHAR
STARTCHAR 0059
ENCODING 89
SWIDTH 631 0
DWIDTH 12 0
BBX 12 14 0 0
BITMAP
E070
6060
70C0
30C0
1980
1980
0F00
0E00
0600
0600
0600
0600
0600
0600
ENDCHAR
STARTCHAR 005A
ENCODING 90
SWIDTH 631 0
DWIDTH 12 0
BBX 10 14 1 0
BITMAP
7FC0
00C0
0180
0380
0300
0600
0E00
1C00
1800
3800
7000
6000
E000
FFC0
ENDCHAR
STARTCHAR 005B
ENCODING 91
SWIDTH 421 0
DWIDTH 8 0
BBX 4 18 2 -4
BITMAP
F0
C0
C0
C0
C0
C0
C0
C0
C0
C0
C0
C0
C0
C0
C0
C0
C0
F0
ENDCHAR
STARTCHAR 005C
ENCODING 92
SWIDTH 421 0
DWIDTH 8 0
BBX 5 15 1 -1
BITMAP
80
C0
40
40
40
60
20
20
30
10
10
10
18
08
08
ENDCHAR
STARTCHAR 005D
ENCODING 93
SWIDTH 421 0
DWIDTH 8 0
BBX 4 18 2 -4
BITMAP
F0
30
30
30
30
30
30
30
30
30
30
30
30
30
30
30
30
F0
ENDCHAR
STARTCHAR 005E
ENCODING 94
SWIDTH 1000 0
DWIDTH 19 0
BBX 9 12 5 0
BITMAP
0800
0800
1400
1400
2200
2200
2200
4100
4100
C180
8080
8080
ENDCHAR
STARTCHAR 005F
ENCODING 95
SWIDTH 526 0
DWIDTH 10 0
BBX 10 1 0 -2
BITMAP
FFC0
ENDCHAR
STARTCHAR 0060
ENCODING 96
SWIDTH 210 0
DWIDTH 4 0
BBX 3 4 0 12
BITMAP
80
C0
60
20
ENDCHAR
STARTCHAR 0061
ENCODING 97
SWIDTH 526 0
DWIDTH 10 0
BBX 8 10 1 0
BITMAP
3E
67
C3
03
3F
63
C3
C3
E7
7B
ENDCHAR
STARTCHAR 0062
ENCODING 98
SWIDTH 578 0
DWIDTH 11 0
BBX 9 14 1 0
BITMAP
C000
C000
C000
C000
DE00
E300
C180
C180
C180
C180
C180
C100
E300
DE00
ENDCHAR
STARTCHAR 0063
ENCODING 99
SWIDTH 526 0
DWIDTH 10 0
BBX 8 10 1 0
BITMAP
3E
67
C3
C0
C0
C0
C0
C3
67
3C
ENDCHAR
STARTCHAR 0064
ENCODING 100
SWIDTH 578 0
DWIDTH 11 0
BBX 9 14 1 0
BITMAP
0180
0180
0180
0180
3D80
6780
C380
C180
C180
C180
C180
4180
6380
1D80
ENDCHAR
STARTCHAR 0065
ENCODING 101
SWIDTH 578 0
DWIDTH 11 0
BBX 9 10 1 0
BITMAP
3E00
6300
C100
C180
FF80
C000
C000
4300
6700
3E00
ENDCHAR
STARTCHAR 0066
ENCODING 102
SWIDTH 421 0
DWIDTH 8 0
BBX 6 14 1 0
BITMAP
1C
30
30
30
FC
30
30
30
30
30
30
30
30
30
ENDCHAR
STARTCHAR 0067
ENCODING 103
SWIDTH 578 0
DWIDTH 11 0
BBX 9 14 1 -4
BITMAP
3D80
6380
C180
C180
C180
C180
C180
C180
6380
3D80
0180
4180
7300
3E00
ENDCHAR
STARTCHAR 0068
ENCODING 104
SWIDTH 526 0
DWIDTH 10 0
BBX 8 14 1 0
BITMAP
C0
C0
C0
C0
DE
E7
C3
C3
C3
C3
C3
C3
C3
C3
ENDCHAR
STARTCHAR 0069
ENCODING 105
SWIDTH 210 0
DWIDTH 4 0
BBX 2 14 1 0
BITMAP
C0
00
00
00
C0
C0
C0
C0
C0
C0
C0
C0
C0
C0
ENDCHAR
STARTCHAR 006A
ENCODING 106
SWIDTH 263 0
DWIDTH 5 0
BBX 3 18 1 -4
BITMAP
60
00
00
00
60
60
60
60
60
60
60
60
60
60
60
60
60
C0
ENDCHAR
STARTCHAR 006B
ENCODING 107
SWIDTH 473 0
DWIDTH 9 0
BBX 7 14 1 0
BITMAP
C0
C0
C0
C0
C6
CC
D8
F0
F0
F8
D8
CC
C6
C6
ENDCHAR
STARTCHAR 006C
ENCODING 108
SWIDTH 210 0
DWIDTH 4 0
BBX 2 14 1 0
BITMAP
C0
C0
C0
C0
C0
C0
C0
C0
C0
C0
C0
C0
C0
C0
ENDCHAR
STARTCHAR 006D
ENCODING 109
SWIDTH 894 0
DWIDTH 17 0
BBX 14 10 1 0
BITMAP
DE78
E79C
C30C
C30C
C30C
C30C
C30C
C30C
C30C
C30C
ENDCHAR
STARTCHAR 006E
ENCODING 110
SWIDTH 526 0
DWIDTH 10 0
BBX 8 10 1 0
BITMAP
DE
E7
C3
C3
C3
C3
C3
C3
C3
C3
ENDCHAR
STARTCHAR 006F
ENCODING 111
SWIDTH 578 0
DWIDTH 11 0
BBX 9 10 1 0
BITMAP
3E00
6300
C180
C180
C180
C180
C180
C180
6300
3E00
ENDCHAR
STARTCHAR 0070
ENCODING 112
SWIDTH 578 0
DWIDTH 11 0
BBX 9 14 1 -4
BITMAP
DE00
E300
C180
C180
C180
C180
C180
C180
E300
DE00
C000
C000
C000
C000
ENDCHAR
STARTCHAR 0071
ENCODING 113
SWIDTH 578 0
DWIDTH 11 0
BBX 9 14 1 -4
BITMAP
3D80
6380
C180
C180
C180
C180
C180
C180
6380
3D80
0180
0180
0180
0180
ENDCHAR
STARTCHAR 0072
ENCODING 114
SWIDTH 368 0
DWIDTH 7 0
BBX 5 10 1 0
BITMAP
F8
E0
C0
C0
C0
C0
C0
C0
C0
C0
ENDCHAR
STARTCHAR 0073
ENCODING 115
SWIDTH 526 0
DWIDTH 10 0
BBX 8 10 1 0
BITMAP
7C
E7
C3
C0
7C
1E
03
C3
E6
7C
ENDCHAR
STARTCHAR 0074
ENCODING 116
SWIDTH 421 0
DWIDTH 8 0
BBX 6 13 1 0
BITMAP
10
30
30
FC
30
30
30
30
30
30
30
30
1C
ENDCHAR
STARTCHAR 0075
ENCODING 117
SWIDTH 526 0
DWIDTH 10 0
BBX 8 10 1 0
BITMAP
C3
C3
C3
C3
C3
C3
C3
C3
E7
7B
ENDCHAR
STARTCHAR 0076
ENCODING 118
SWIDTH 526 0
DWIDTH 10 0
BBX 10 10 0 0
BITMAP
C0C0
6080
6180
3180
3300
3300
1A00
1E00
0E00
0C00
ENDCHAR
STARTCHAR 0077
ENCODING 119
SWIDTH 789 0
DWIDTH 15 0
BBX 15 10 0 0
BITMAP
C386
6386
63C4
62CC
264C
3648
3478
1C78
1C30
1830
ENDCHAR
STARTCHAR 0078
ENCODING 120
SWIDTH 526 0
DWIDTH 10 0
BBX 9 10 1 0
BITMAP
C300
6300
7600
3C00
1800
1C00
3C00
6600
C300
C380
ENDCHAR
STARTCHAR 0079
ENCODING 121
SWIDTH 526 0
DWIDTH 10 0
BBX 10 14 0 -4
BITMAP
C0C0
6180
6180
3180
3300
1300
1A00
1E00
0E00
0C00
0C00
0C00
1800
1800
ENDCHAR
STARTCHAR 007A
ENCODING 122
SWIDTH 473 0
DWIDTH 9 0
BBX 7 10 1 0
BITMAP
FE
06
0C
1C
18
30
60
60
C0
FE
ENDCHAR
STARTCHAR 007B
ENCODING 123
SWIDTH 526 0
DWIDTH 10 0
BBX 6 19 2 -5
BITMAP
0C
18
10
30
30
30
30
30
60
E0
E0
30
30
30
30
10
10
18
1C
ENDCHAR
STARTCHAR 007C
ENCODING 124
SWIDTH 368 0
DWIDTH 7 0
BBX 1 21 3 -5
BITMAP
80
80
80
80
80
80
80
80
80
80
80
80
80
80
80
80
80
80
80
80
80
ENDCHAR
STARTCHAR 007D
ENCODING 125
SWIDTH 526 0
DWIDTH 10 0
BBX 6 19 2 -5
BITMAP
E0
70
30
30
30
30
30
10
18
0C
1C
10
30
30
30
30
30
30
E0
ENDCHAR
STARTCHAR 007E
ENCODING 126
SWIDTH 526 0
DWIDTH 10 0
BBX 10 2 0 4
BITMAP
78C0
CF80
ENDCHAR
STARTCHAR 00A0
ENCODING 160
SWIDTH 315 0
DWIDTH 6 0
BBX 0 0 0 0
BITMAP
ENDCHAR
STARTCHAR 00A1
ENCODING 161
SWIDTH 368 0
DWIDTH 7 0
BBX 2 14 3 -4
BITMAP
C0
C0
00
00
C0
C0
C0
C0
C0
C0
C0
C0
C0
C0
ENDCHAR
STARTCHAR 00A2
ENCODING 162
SWIDTH 526 0
DWIDTH 10 0
BBX 8 14 1 -2
BITMAP
02
04
3C
66
CB
C8
C8
D0
D0
D3
66
3C
20
40
ENDCHAR
STARTCHAR 00A3
ENCODING 163
SWIDTH 578 0
DWIDTH 11 0
BBX 10 14 1 0
BITMAP
1F00
3180
60C0
6000
6000
FC00
6000
6000
6000
6000
6000
6000
6000
FF80
ENDCHAR
STARTCHAR 00A4
ENCODING 164
SWIDTH 631 0
DWIDTH 12 0
BBX 10 10 1 3
BITMAP
8040
5E80
3300
4180
4080
4080
4080
2100
5E80
8040
ENDCHAR
STARTCHAR 00A5
ENCODING 165
SWIDTH 631 0
DWIDTH 12 0
BBX 10 14 1 0
BITMAP
C0C0
6080
6180
3100
F3C0
1B00
1E00
FFC0
0C00
0C00
0C00
0C00
0C00
0C00
ENDCHAR
STARTCHAR 00A6
ENCODING 166
SWIDTH 368 0
DWIDTH 7 0
BBX 1 18 3 -4
BITMAP
80
80
80
80
80
80
80
80
00
00
80
80
80
80
80
80
80
80
ENDCHAR
STARTCHAR 00A7
ENCODING 167
SWIDTH 473 0
DWIDTH 9 0
BBX 7 17 1 -3
BITMAP
3C
64
C0
C0
60
38
7C
C6
C6
CE
7C
3C
0E
06
06
8C
F8
ENDCHAR
STARTCHAR 00A8
ENCODING 168
SWIDTH 315 0
DWIDTH 6 0
BBX 6 1 0 13
BITMAP
CC
ENDCHAR
STARTCHAR 00A9
ENCODING 169
SWIDTH 842 0
DWIDTH 16 0
BBX 14 14 1 0
BITMAP
0FC0
1CE0
2790
4CC8
D86C
9804
9804
9804
9864
8CCC
47C8
2010
1020
0FC0
ENDCHAR
STARTCHAR 00AA
ENCODING 170
SWIDTH 421 0
DWIDTH 8 0
BBX 7 10 1 4
BITMAP
78
CC
04
7C
C4
84
7C
00
00
FE
ENDCHAR
STARTCHAR 00AB
ENCODING 171
SWIDTH 578 0
DWIDTH 11 0
BBX 7 8 2 1
BITMAP
26
64
CC
D8
98
CC
64
26
ENDCHAR
STARTCHAR 00AC
ENCODING 172
SWIDTH 631 0
DWIDTH 12 0
BBX 10 5 1 3
BITMAP
FFC0
0040
0040
0040
0040
ENDCHAR
STARTCHAR 00AE
ENCODING 174
SWIDTH 842 0
DWIDTH 16 0
BBX 14 14 1 0
BITMAP
0FC0
1CE0
2FD0
4C68
CC6C
8C64
8F84
8C44
8C64
CC6C
4C68
2010
1CE0
0FC0
ENDCHAR
STARTCHAR 00AF
ENCODING 175
SWIDTH 315 0
DWIDTH 6 0
BBX 6 1 0 13
BITMAP
FC
ENDCHAR
STARTCHAR 00B0
ENCODING 176
SWIDTH 315 0
DWIDTH 6 0
BBX 4 5 1 9
BITMAP
60
F0
90
90
60
ENDCHAR
STARTCHAR 00B1
ENCODING 177
SWIDTH 1000 0
DWIDTH 19 0
BBX 11 12 4 0
BITMAP
0600
0600
0600
0600
FFE0
0600
0600
0600
0000
0000
0000
FFE0
ENDCHAR
STARTCHAR 00B2
ENCODING 178
SWIDTH 368 0
DWIDTH 7 0
BBX 6 8 1 6
BITMAP
78
DC
0C
0C
18
30
C0
FC
ENDCHAR
STARTCHAR 00B3
ENCODING 179
SWIDTH 368 0
DWIDTH 7 0
BBX 6 8 1 6
BITMAP
78
CC
0C
30
18
8C
CC
78
ENDCHAR
STARTCHAR 00B4
ENCODING 180
SWIDTH 210 0
DWIDTH 4 0
BBX 4 4 1 12
BITMAP
30
60
40
C0
ENDCHAR
STARTCHAR 00B6
ENCODING 182
SWIDTH 578 0
DWIDTH 11 0
BBX 9 18 1 -4
BITMAP
3F80
7900
F900
F900
F900
F900
7900
1900
0900
0900
0900
0900
0900
0900
0900
0900
0900
0900
ENDCHAR
STARTCHAR 00B7
ENCODING 183
SWIDTH 263 0
DWIDTH 5 0
BBX 2 2 2 5
BITMAP
C0
C0
ENDCHAR
STARTCHAR 00B8
ENCODING 184
SWIDTH 263 0
DWIDTH 5 0
BBX 6 5 0 -5
BITMAP
40
78
0C
0C
F8
ENDCHAR
STARTCHAR 00B9
ENCODING 185
SWIDTH 315 0
DWIDTH 6 0
BBX 4 7 1 7
BITMAP
70
F0
30
30
30
30
30
ENDCHAR
STARTCHAR 00BA
ENCODING 186
SWIDTH 421 0
DWIDTH 8 0
BBX 6 10 1 4
BITMAP
78
48
84
84
84
84
CC
78
00
FC
ENDCHAR
STARTCHAR 00BB
ENCODING 187
SWIDTH 578 0
DWIDTH 11 0
BBX 7 8 2 1
BITMAP
98
CC
64
66
66
64
CC
98
ENDCHAR
STARTCHAR 00BC
ENCODING 188
SWIDTH 789 0
DWIDTH 15 0
BBX 13 14 1 0
BITMAP
7040
F0C0
3080
3180
3100
3300
3230
3670
0C70
08B0
19B0
11F8
3030
2030
ENDCHAR
STARTCHAR 00BD
ENCODING 189
SWIDTH 789 0
DWIDTH 15 0
BBX 13 14 1 0
BITMAP
7040
F0C0
3080
3180
3100
3200
3270
34D8
0C18
0818
1830
1060
30C0
20F8
ENDCHAR
STARTCHAR 00BE
ENCODING 190
SWIDTH 842 0
DWIDTH 16 0
BBX 14 14 1 0
BITMAP
7830
CC20
0C60
30C0
0C80
8D80
7918
0338
0278
0458
0C98
08FC
1818
1018
ENDCHAR
STARTCHAR 00BF
ENCODING 191
SWIDTH 526 0
DWIDTH 10 0
BBX 8 14 1 -4
BITMAP
0C
0C
00
0C
0C
0C
18
30
60
C0
C0
C1
7F
3E
ENDCHAR
STARTCHAR 00C0
ENCODING 192
SWIDTH 736 0
DWIDTH 14 0
BBX 14 20 0 0
BITMAP
0C00
0600
0200
0300
0000
0000
0300
0780
0780
04C0
0CC0
0CC0
1860
1860
1FF0
3FF0
3018
6018
6018
C00C
ENDCHAR
STARTCHAR 00C1
ENCODING 193
SWIDTH 736 0
DWIDTH 14 0
BBX 14 20 0 0
BITMAP
00C0
0080
0180
0100
0000
0000
0300
0780
0780
04C0
0CC0
0CC0
1860
1860
1FF0
3FF0
3018
6018
6018
C00C
ENDCHAR
STARTCHAR 00C2
ENCODING 194
SWIDTH 736 0
DWIDTH 14 0
BBX 14 20 0 0
BITMAP
0300
0380
0680
04C0
0000
0000
0300
0780
0780
04C0
0CC0
0CC0
1860
1860
1FF0
3FF0
3018
6018
6018
C00C
ENDCHAR
STARTCHAR 00C3
ENCODING 195
SWIDTH 736 0
DWIDTH 14 0
BBX 14 18 0 0
BITMAP
07C0
0000
0000
0000
0300
0780
0780
04C0
0CC0
0CC0
1860
1860
1FF0
3FF0
3018
6018
6018
C00C
ENDCHAR
STARTCHAR 00C4
ENCODING 196
SWIDTH 789 0
DWIDTH 15 0
BBX 13 18 1 0
BITMAP
0CC0
0000
0000
0000
0700
0700
0D80
0D80
0CC0
18C0
18C0
3060
3FE0
3FF0
6030
6018
C018
C018
ENDCHAR
STARTCHAR 00C5
ENCODING 197
SWIDTH 736 0
DWIDTH 14 0
BBX 13 21 1 0
BITMAP
0600
0D00
0900
0900
0600
0000
0000
0600
0700
0F00
0D00
1980
1980
10C0
30C0
3FE0
7FE0
6020
C030
C030
C018
ENDCHAR
STARTCHAR 00C6
ENCODING 198
SWIDTH 1000 0
DWIDTH 19 0
BBX 17 14 1 0
BITMAP
01FF80
03C000
02C000
06C000
0EC000
0CC000
1CFF80
18C000
38C000
3FC000
60C000
60C000
C0C000
C0FF80
ENDCHAR
STARTCHAR 00C7
ENCODING 199
SWIDTH 684 0
DWIDTH 13 0
BBX 11 18 1 -4
BITMAP
1F80
39C0
6060
4060
C000
C000
C000
C000
C000
C000
4060
6060
31C0
1F00
0400
0700
0180
0F80
ENDCHAR
STARTCHAR 00C8
ENCODING 200
SWIDTH 631 0
DWIDTH 12 0
BBX 9 20 2 0
BITMAP
6000
3000
1800
0800
0000
0000
FF80
C000
C000
C000
C000
C000
FF80
C000
C000
C000
C000
C000
C000
FF80
ENDCHAR
STARTCHAR 00C9
ENCODING 201
SWIDTH 631 0
DWIDTH 12 0
BBX 9 20 2 0
BITMAP
0600
0400
0C00
1800
0000
0000
FF80
C000
C000
C000
C000
C000
FF80
C000
C000
C000
C000
C000
C000
FF80
ENDCHAR
STARTCHAR 00CA
ENCODING 202
SWIDTH 631 0
DWIDTH 12 0
BBX 9 20 2 0
BITMAP
1800
1C00
3400
2600
0000
0000
FF80
C000
C000
C000
C000
C000
FF80
C000
C000
C000
C000
C000
C000
FF80
ENDCHAR
STARTCHAR 00CB
ENCODING 203
SWIDTH 631 0
DWIDTH 12 0
BBX 9 18 2 0
BITMAP
6600
0000
0000
0000
FF80
C000
C000
C000
C000
C000
FF80
C000
C000
C000
C000
C000
C000
FF80
ENDCHAR
STARTCHAR 00CC
ENCODING 204
SWIDTH 263 0
DWIDTH 5 0
BBX 4 20 0 0
BITMAP
C0
60
20
30
00
00
30
30
30
30
30
30
30
30
30
30
30
30
30
30
ENDCHAR
STARTCHAR 00CD
ENCODING 205
SWIDTH 263 0
DWIDTH 5 0
BBX 4 20 2 0
BITMAP
30
60
40
80
00
00
C0
C0
C0
C0
C0
C0
C0
C0
C0
C0
C0
C0
C0
C0
ENDCHAR
STARTCHAR 00CE
ENCODING 206
SWIDTH 263 0
DWIDTH 5 0
BBX 5 20 0 0
BITMAP
30
70
58
C8
00
00
30
30
30
30
30
30
30
30
30
30
30
30
30
30
ENDCHAR
STARTCHAR 00CF
ENCODING 207
SWIDTH 315 0
DWIDTH 6 0
BBX 6 18 0 0
BITMAP
CC
00
00
00
30
30
30
30
30
30
30
30
30
30
30
30
30
30
ENDCHAR
STARTCHAR 00D0
ENCODING 208
SWIDTH 736 0
DWIDTH 14 0
BBX 13 14 0 0
BITMAP
7F80
61E0
6070
6030
6010
6018
FE18
6018
6018
6010
6030
6060
61E0
7F80
ENDCHAR
STARTCHAR 00D1
ENCODING 209
SWIDTH 736 0
DWIDTH 14 0
BBX 11 18 2 0
BITMAP
1F00
0000
0000
0000
E060
E060
F060
F860
D860
DC60
CC60
C660
C660
C360
C360
C1E0
C1E0
C0E0
ENDCHAR
STARTCHAR 00D2
ENCODING 210
SWIDTH 736 0
DWIDTH 14 0
BBX 12 20 1 0
BITMAP
1800
0C00
0600
0200
0000
0000
1F80
39C0
6060
4020
C030
C030
C030
C030
C030
C030
4020
6060
39C0
0F00
ENDCHAR
STARTCHAR 00D3
ENCODING 211
SWIDTH 736 0
DWIDTH 14 0
BBX 12 20 1 0
BITMAP
0180
0300
0600
0400
0000
0000
1F80
39C0
6060
4020
C030
C030
C030
C030
C030
C030
4020
6060
39C0
0F00
ENDCHAR
STARTCHAR 00D4
ENCODING 212
SWIDTH 736 0
DWIDTH 14 0
BBX 12 20 1 0
BITMAP
0600
0F00
0900
1080
0000
0000
1F80
39C0
6060
4020
C030
C030
C030
C030
C030
C030
4020
6060
39C0
0F00
ENDCHAR
STARTCHAR 00D5
ENCODING 213
SWIDTH 736 0
DWIDTH 14 0
BBX 12 19 1 0
BITMAP
0C80
1F00
0000
0000
0000
1F80
39C0
6060
4020
C030
C030
C030
C030
C030
C030
6060
70E0
3FC0
0F00
ENDCHAR
STARTCHAR 00D6
ENCODING 214
SWIDTH 736 0
DWIDTH 14 0
BBX 12 18 1 0
BITMAP
0D80
0000
0000
0000
1F80
39C0
6060
4020
C030
C030
C030
C030
C030
C030
4020
6060
39C0
0F00
ENDCHAR
STARTCHAR 00D7
ENCODING 215
SWIDTH 1000 0
DWIDTH 19 0
BBX 11 10 4 1
BITMAP
C060
60C0
3180
1B00
0E00
0E00
1B00
3180
60C0
4060
ENDCHAR
STARTCHAR 00D8
ENCODING 216
SWIDTH 736 0
DWIDTH 14 0
BBX 12 16 1 -1
BITMAP
0030
1FE0
38E0
60E0
41B0
C1B0
C330
C630
C630
CC30
DC30
5820
7060
39C0
7F00
C000
ENDCHAR
STARTCHAR 00D9
ENCODING 217
SWIDTH 789 0
DWIDTH 15 0
BBX 11 20 2 0
BITMAP
1800
0800
0400
0600
0000
0000
C060
C060
C060
C060
C060
C060
C060
C060
C060
C060
C060
60C0
7FC0
1F00
ENDCHAR
STARTCHAR 00DA
ENCODING 218
SWIDTH 789 0
DWIDTH 15 0
BBX 11 20 2 0
BITMAP
0300
0200
0400
0C00
0000
0000
C060
C060
C060
C060
C060
C060
C060
C060
C060
C060
C060
60C0
7FC0
1F00
ENDCHAR
STARTCHAR 00DB
ENCODING 219
SWIDTH 789 0
DWIDTH 15 0
BBX 11 20 2 0
BITMAP
0E00
0E00
1B00
1100
0000
0000
C060
C060
C060
C060
C060
C060
C060
C060
C060
C060
C060
60C0
7FC0
1F00
ENDCHAR
STARTCHAR 00DC
ENCODING 220
SWIDTH 789 0
DWIDTH 15 0
BBX 11 18 2 0
BITMAP
1980
0000
0000
0000
C060
C060
C060
C060
C060
C060
C060
C060
C060
C060
C060
60C0
71C0
1F00
ENDCHAR
STARTCHAR 00DD
ENCODING 221
SWIDTH 631 0
DWIDTH 12 0
BBX 12 20 0 0
BITMAP
0180
0300
0200
0400
0000
0000
E070
6060
70C0
30C0
1980
1980
0F00
0E00
0600
0600
0600
0600
0600
0600
ENDCHAR
STARTCHAR 00DE
ENCODING 222
SWIDTH 631 0
DWIDTH 12 0
BBX 9 14 2 0
BITMAP
C000
C000
C000
FE00
C300
C180
C180
C180
C380
FE00
C000
C000
C000
C000
ENDCHAR
STARTCHAR 00DF
ENCODING 223
SWIDTH 578 0
DWIDTH 11 0
BBX 10 14 1 0
BITMAP
3E00
6700
C300
C300
C600
CC00
CC00
CE00
C780
C180
C0C0
D8C0
DC80
C780
ENDCHAR
STARTCHAR 00E0
ENCODING 224
SWIDTH 526 0
DWIDTH 10 0
BBX 8 15 1 0
BITMAP
30
18
08
00
00
3E
67
C3
03
3F
63
C3
C3
E7
7B
ENDCHAR
STARTCHAR 00E1
ENCODING 225
SWIDTH 526 0
DWIDTH 10 0
BBX 8 16 1 0
BITMAP
06
0C
18
10
00
00
3E
67
C3
03
3F
63
C3
C3
E7
7B
ENDCHAR
STARTCHAR 00E2
ENCODING 226
SWIDTH 526 0
DWIDTH 10 0
BBX 8 16 1 0
BITMAP
18
1C
24
26
00
00
3E
67
C3
03
3F
63
C3
C3
E7
7B
ENDCHAR
STARTCHAR 00E3
ENCODING 227
SWIDTH 526 0
DWIDTH 10 0
BBX 8 14 1 0
BITMAP
3E
00
00
00
3E
67
C3
03
3F
73
C3
C3
E7
7B
ENDCHAR
STARTCHAR 00E4
ENCODING 228
SWIDTH 526 0
DWIDTH 10 0
BBX 8 14 1 0
BITMAP
66
00
00
00
3E
67
C3
03
3F
63
C3
C3
E7
7B
ENDCHAR
STARTCHAR 00E5
ENCODING 229
SWIDTH 526 0
DWIDTH 10 0
BBX 8 16 1 0
BITMAP
1C
22
22
1C
00
00
3E
63
C1
01
3F
71
C1
C1
E7
3D
ENDCHAR
STARTCHAR 00E6
ENCODING 230
SWIDTH 947 0
DWIDTH 18 0
BBX 16 10 1 0
BITMAP
3E7C
E3C6
C183
0183
3FFF
E180
C180
C383
E6EE
7C3C
ENDCHAR
STARTCHAR 00E7
ENCODING 231
SWIDTH 526 0
DWIDTH 10 0
BBX 8 14 1 -4
BITMAP
3E
67
C3
C0
C0
C0
C0
C3
66
3C
10
1C
06
3E
ENDCHAR
STARTCHAR 00E8
ENCODING 232
SWIDTH 578 0
DWIDTH 11 0
BBX 9 16 1 0
BITMAP
3000
3000
1800
0800
0000
0000
3E00
6300
C100
C180
FF80
C000
C000
4300
6700
3E00
ENDCHAR
STARTCHAR 00E9
ENCODING 233
SWIDTH 578 0
DWIDTH 11 0
BBX 9 16 1 0
BITMAP
0600
0C00
0800
1800
0000
0000
3E00
6300
C100
C180
FF80
C000
C000
4300
6700
3E00
ENDCHAR
STARTCHAR 00EA
ENCODING 234
SWIDTH 578 0
DWIDTH 11 0
BBX 9 16 1 0
BITMAP
1800
1C00
3400
2200
0000
0000
3E00
6300
C100
C180
FF80
C000
C000
4300
6700
3E00
ENDCHAR
STARTCHAR 00EB
ENCODING 235
SWIDTH 578 0
DWIDTH 11 0
BBX 9 14 1 0
BITMAP
6600
0000
0000
0000
3E00
6300
C100
C180
FF80
C000
C000
4300
6700
3E00
ENDCHAR
STARTCHAR 00EC
ENCODING 236
SWIDTH 210 0
DWIDTH 4 0
BBX 3 15 0 0
BITMAP
80
C0
60
20
00
60
60
60
60
60
60
60
60
60
60
ENDCHAR
STARTCHAR 00ED
ENCODING 237
SWIDTH 210 0
DWIDTH 4 0
BBX 3 15 1 0
BITMAP
60
40
C0
80
00
C0
C0
C0
C0
C0
C0
C0
C0
C0
C0
ENDCHAR
STARTCHAR 00EE
ENCODING 238
SWIDTH 210 0
DWIDTH 4 0
BBX 6 15 -1 0
BITMAP
30
78
48
84
00
30
30
30
30
30
30
30
30
30
30
ENDCHAR
STARTCHAR 00EF
ENCODING 239
SWIDTH 263 0
DWIDTH 5 0
BBX 6 14 0 0
BITMAP
CC
00
00
00
30
30
30
30
30
30
30
30
30
30
ENDCHAR
STARTCHAR 00F0
ENCODING 240
SWIDTH 578 0
DWIDTH 11 0
BBX 9 14 1 0
BITMAP
6600
1800
6C00
0600
3F00
6300
C180
C180
C180
C180
C180
C180
6300
3E00
ENDCHAR
STARTCHAR 00F1
ENCODING 241
SWIDTH 526 0
DWIDTH 10 0
BBX 8 14 1 0
BITMAP
34
7C
00
00
DE
E7
C3
C3
C3
C3
C3
C3
C3
C3
ENDCHAR
STARTCHAR 00F2
ENCODING 242
SWIDTH 578 0
DWIDTH 11 0
BBX 9 16 1 0
BITMAP
3000
1000
1800
0800
0000
0000
3E00
6300
C180
C180
C180
C180
C180
C180
6300
3E00
ENDCHAR
STARTCHAR 00F3
ENCODING 243
SWIDTH 578 0
DWIDTH 11 0
BBX 9 16 1 0
BITMAP
0600
0400
0C00
0800
0000
0000
3E00
6300
C180
C180
C180
C180
C180
C180
6300
3E00
ENDCHAR
STARTCHAR 00F4
ENCODING 244
SWIDTH 578 0
DWIDTH 11 0
BBX 9 16 1 0
BITMAP
0800
1C00
1400
2200
0000
0000
3E00
6300
C180
C180
C180
C180
C180
C180
6300
3E00
ENDCHAR
STARTCHAR 00F5
ENCODING 245
SWIDTH 578 0
DWIDTH 11 0
BBX 9 14 1 0
BITMAP
3E00
0000
0000
0000
3E00
6300
C180
C180
C180
C180
C180
C180
6300
3E00
ENDCHAR
STARTCHAR 00F6
ENCODING 246
SWIDTH 578 0
DWIDTH 11 0
BBX 9 14 1 0
BITMAP
3300
0000
0000
0000
3E00
7300
C180
C080
C080
C080
C080
C180
7300
3E00
ENDCHAR
STARTCHAR 00F7
ENCODING 247
SWIDTH 1000 0
DWIDTH 19 0
BBX 11 8 4 2
BITMAP
0600
0600
0000
0000
FFE0
0000
0600
0600
ENDCHAR
STARTCHAR 00F8
ENCODING 248
SWIDTH 578 0
DWIDTH 11 0
BBX 9 12 1 0
BITMAP
0180
3F00
6300
C780
C580
C980
D980
D180
E180
6300
FE00
8000
ENDCHAR
STARTCHAR 00F9
ENCODING 249
SWIDTH 526 0
DWIDTH 10 0
BBX 8 16 1 0
BITMAP
60
30
10
08
00
00
C3
C3
C3
C3
C3
C3
C3
C3
E7
7B
ENDCHAR
STARTCHAR 00FA
ENCODING 250
SWIDTH 526 0
DWIDTH 10 0
BBX 8 16 1 0
BITMAP
04
0C
08
10
00
00
C3
C3
C3
C3
C3
C3
C3
C3
E7
7B
ENDCHAR
STARTCHAR 00FB
ENCODING 251
SWIDTH 526 0
DWIDTH 10 0
BBX 8 16 1 0
BITMAP
18
18
34
24
00
00
C3
C3
C3
C3
C3
C3
C3
C3
E7
7B
ENDCHAR
STARTCHAR 00FC
ENCODING 252
SWIDTH 526 0
DWIDTH 10 0
BBX 8 14 1 0
BITMAP
66
00
00
00
C3
C3
C3
C3
C3
C3
C3
C3
E7
7B
ENDCHAR
STARTCHAR 00FD
ENCODING 253
SWIDTH 526 0
DWIDTH 10 0
BBX 10 19 0 -4
BITMAP
0300
0600
0400
0800
0000
C0C0
6180
6180
3180
3300
1300
1A00
1E00
0E00
0C00
0C00
0C00
7800
7800
ENDCHAR
STARTCHAR 00FE
ENCODING 254
SWIDTH 578 0
DWIDTH 11 0
BBX 9 18 1 -4
BITMAP
C000
C000
C000
C000
DE00
E300
C180
C180
C180
C180
C180
C180
E300
DE00
C000
C000
C000
C000
ENDCHAR
STARTCHAR 00FF
ENCODING 255
SWIDTH 526 0
DWIDTH 10 0
BBX 10 18 0 -4
BITMAP
3300
0000
0000
0000
C0C0
6180
6180
6100
3300
3300
1E00
1E00
1E00
0C00
0C00
1800
1800
1800
ENDCHAR
STARTCHAR 0131
ENCODING 305
SWIDTH 210 0
DWIDTH 4 0
BBX 2 10 1 0
BITMAP
C0
C0
C0
C0
C0
C0
C0
C0
C0
C0
ENDCHAR
STARTCHAR 0141
ENCODING 321
SWIDTH 631 0
DWIDTH 12 0
BBX 10 14 1 0
BITMAP
3000
3000
3000
3400
3C00
3800
3000
7000
F000
B000
3000
3000
3FC0
3FC0
ENDCHAR
STARTCHAR 0142
ENCODING 322
SWIDTH 315 0
DWIDTH 6 0
BBX 5 14 1 0
BITMAP
60
60
60
68
78
70
60
E0
E0
60
60
60
60
60
ENDCHAR
STARTCHAR 0152
ENCODING 338
SWIDTH 1000 0
DWIDTH 19 0
BBX 17 14 1 0
BITMAP
0FFF80
38E000
606000
606000
C06000
C06000
C07F80
C06000
C06000
C06000
606000
606000
38E000
0FFF80
ENDCHAR
STARTCHAR 0153
ENCODING 339
SWIDTH 947 0
DWIDTH 18 0
BBX 16 10 1 0
BITMAP
3E7C
63E6
C182
C183
C1FF
C180
C180
C183
63E6
3E7C
ENDCHAR
STARTCHAR 0160
ENCODING 352
SWIDTH 631 0
DWIDTH 12 0
BBX 10 20 1 0
BITMAP
3100
1200
1E00
0E00
0000
0000
3F00
6180
C0C0
C000
C000
F000
7F00
1F80
01C0
00C0
C0C0
C0C0
6180
3E00
ENDCHAR
STARTCHAR 0161
ENCODING 353
SWIDTH 526 0
DWIDTH 10 0
BBX 8 15 1 0
BITMAP
46
2C
3C
00
00
7C
E6
C3
C0
7C
1E
03
C3
E6
7C
ENDCHAR
STARTCHAR 0178
ENCODING 376
SWIDTH 684 0
DWIDTH 13 0
BBX 12 18 1 0
BITMAP
1980
0000
0000
0000
C030
6060
70E0
30C0
1980
1980
0F00
0E00
0600
0600
0600
0600
0600
0600
ENDCHAR
STARTCHAR 017D
ENCODING 381
SWIDTH 631 0
DWIDTH 12 0
BBX 10 20 1 0
BITMAP
1100
1200
0E00
0C00
0000
0000
7FC0
00C0
0180
0380
0300
0600
0E00
1C00
1800
3800
7000
6000
E000
FFC0
ENDCHAR
STARTCHAR 017E
ENCODING 382
SWIDTH 473 0
DWIDTH 9 0
BBX 7 15 1 0
BITMAP
CC
48
78
30
00
FE
06
0C
1C
18
30
60
60
C0
FE
ENDCHAR
STARTCHAR 0192
ENCODING 402
SWIDTH 526 0
DWIDTH 10 0
BBX 11 18 -1 -4
BITMAP
01E0
0180
0300
0200
0F80
0600
0600
0400
0C00
0C00
0C00
0800
1800
1800
1800
1000
3000
E000
ENDCHAR
STARTCHAR 02C6
ENCODING 710
SWIDTH 315 0
DWIDTH 6 0
BBX 5 4 0 12
BITMAP
30
70
58
C8
ENDCHAR
STARTCHAR 02C7
ENCODING 711
SWIDTH 315 0
DWIDTH 6 0
BBX 6 4 0 12
BITMAP
8C
C8
78
70
ENDCHAR
STARTCHAR 02D8
ENCODING 728
SWIDTH 263 0
DWIDTH 5 0
BBX 5 2 0 12
BITMAP
88
78
ENDCHAR
STARTCHAR 02D9
ENCODING 729
SWIDTH 105 0
DWIDTH 2 0
BBX 2 2 0 12
BITMAP
C0
C0
ENDCHAR
STARTCHAR 02DA
ENCODING 730
SWIDTH 210 0
DWIDTH 4 0
BBX 4 4 0 12
BITMAP
60
90
90
60
ENDCHAR
STARTCHAR 02DB
ENCODING 731
SWIDTH 210 0
DWIDTH 4 0
BBX 3 5 0 -4
BITMAP
20
40
C0
C0
E0
ENDCHAR
STARTCHAR 02DC
ENCODING 732
SWIDTH 315 0
DWIDTH 6 0
BBX 5 2 0 12
BITMAP
68
B8
ENDCHAR
STARTCHAR 02DD
ENCODING 733
SWIDTH 315 0
DWIDTH 6 0
BBX 5 3 0 12
BITMAP
68
58
90
ENDCHAR
STARTCHAR 0394
ENCODING 916
SWIDTH 631 0
DWIDTH 12 0
BBX 12 14 0 0
BITMAP
0200
0200
0700
0700
0B00
0980
1180
1180
10C0
20C0
2060
4060
4060
FFF0
ENDCHAR
STARTCHAR 03A9
ENCODING 937
SWIDTH 789 0
DWIDTH 15 0
BBX 13 14 1 0
BITMAP
0F80
3060
6030
E038
C018
C018
C018
C018
6030
6030
3060
0880
F8F8
F8F8
ENDCHAR
STARTCHAR 03BC
ENCODING 956
SWIDTH 631 0
DWIDTH 12 0
BBX 10 14 1 -4
BITMAP
C300
C300
C300
C300
C300
C300
C300
C300
E700
F9C0
C000
C000
C000
C000
ENDCHAR
STARTCHAR 03C0
ENCODING 960
SWIDTH 526 0
DWIDTH 10 0
BBX 10 10 0 0
BITMAP
7FC0
FFC0
1200
3200
3200
3200
2200
2240
6380
6180
ENDCHAR
STARTCHAR 2013
ENCODING 8211
SWIDTH 526 0
DWIDTH 10 0
BBX 10 1 0 4
BITMAP
FFC0
ENDCHAR
STARTCHAR 2014
ENCODING 8212
SWIDTH 1000 0
DWIDTH 19 0
BBX 19 1 0 4
BITMAP
FFFFE0
ENDCHAR
STARTCHAR 2018
ENCODING 8216
SWIDTH 263 0
DWIDTH 5 0
BBX 3 5 1 9
BITMAP
20
60
60
C0
C0
ENDCHAR
STARTCHAR 2019
ENCODING 8217
SWIDTH 263 0
DWIDTH 5 0
BBX 3 5 1 9
BITMAP
60
E0
C0
C0
80
ENDCHAR
STARTCHAR 201A
ENCODING 8218
SWIDTH 263 0
DWIDTH 5 0
BBX 3 5 1 -2
BITMAP
60
E0
C0
C0
80
ENDCHAR
STARTCHAR 201C
ENCODING 8220
SWIDTH 421 0
DWIDTH 8 0
BBX 7 5 1 9
BITMAP
26
64
6C
CC
DC
ENDCHAR
STARTCHAR 201D
ENCODING 8221
SWIDTH 421 0
DWIDTH 8 0
BBX 6 5 1 9
BITMAP
6C
EC
CC
D8
98
ENDCHAR
STARTCHAR 201E
ENCODING 8222
SWIDTH 421 0
DWIDTH 8 0
BBX 6 5 1 -2
BITMAP
6C
EC
CC
D8
98
ENDCHAR
STARTCHAR 2020
ENCODING 8224
SWIDTH 578 0
DWIDTH 11 0
BBX 9 17 1 -3
BITMAP
1800
1800
1800
1800
FF80
1800
1800
1800
1800
1800
1800
1800
1800
1800
1800
1800
1800
ENDCHAR
STARTCHAR 2021
ENCODING 8225
SWIDTH 578 0
DWIDTH 11 0
BBX 9 17 1 -3
BITMAP
1800
1800
1800
1800
FF80
1800
1800
1800
1800
1800
1800
FF80
1800
1800
1800
1800
1800
ENDCHAR
STARTCHAR 2022
ENCODING 8226
SWIDTH 315 0
DWIDTH 6 0
BBX 4 4 1 4
BITMAP
60
F0
F0
60
ENDCHAR
STARTCHAR 2026
ENCODING 8230
SWIDTH 1052 0
DWIDTH 20 0
BBX 18 2 1 0
BITMAP
C0C0C0
C0C0C0
ENDCHAR
STARTCHAR 2030
ENCODING 8240
SWIDTH 1368 0
DWIDTH 26 0
BBX 24 14 1 0
BITMAP
781000
6C1000
C62000
C66000
C64000
CC8000
7C8000
013C3C
036666
0263C3
0663C3
0463C3
086666
083C3C
ENDCHAR
STARTCHAR 2039
ENCODING 8249
SWIDTH 368 0
DWIDTH 7 0
BBX 3 8 2 1
BITMAP
20
60
C0
C0
80
C0
60
20
ENDCHAR
STARTCHAR 203A
ENCODING 8250
SWIDTH 368 0
DWIDTH 7 0
BBX 3 8 2 1
BITMAP
80
C0
60
60
60
60
C0
80
ENDCHAR
STARTCHAR 2044
ENCODING 8260
SWIDTH 578 0
DWIDTH 11 0
BBX 9 14 1 0
BITMAP
0180
0100
0300
0200
0400
0400
0800
1800
1000
3000
2000
4000
C000
8000
ENDCHAR
STARTCHAR 2122
ENCODING 8482
SWIDTH 684 0
DWIDTH 13 0
BBX 11 5 1 8
BITMAP
F660
4660
45A0
45A0
45A0
ENDCHAR
STARTCHAR 2202
ENCODING 8706
SWIDTH 578 0
DWIDTH 11 0
BBX 9 16 1 -1
BITMAP
7800
0600
0200
0100
0100
0100
0180
3D80
6300
C100
C300
C300
C300
C200
4400
1800
ENDCHAR
STARTCHAR 220F
ENCODING 8719
SWIDTH 842 0
DWIDTH 16 0
BBX 15 17 1 -2
BITMAP
FFFE
7018
3018
3018
3018
3018
3018
3018
3018
3018
3018
3018
3018
3018
3018
7018
FC7E
ENDCHAR
STARTCHAR 2211
ENCODING 8721
SWIDTH 736 0
DWIDTH 14 0
BBX 13 17 0 -2
BITMAP
FFF0
7010
3810
1800
0C00
0E00
0700
0300
0180
0100
0200
0400
0800
1808
3008
3FF8
7FF8
ENDCHAR
STARTCHAR 2212
ENCODING 8722
SWIDTH 1000 0
DWIDTH 19 0
BBX 11 1 4 5
BITMAP
FFE0
ENDCHAR
STARTCHAR 221A
ENCODING 8730
SWIDTH 578 0
DWIDTH 11 0
BBX 10 14 1 0
BITMAP
00C0
0080
0080
0100
0100
C100
6100
2200
3200
1200
1C00
0C00
0C00
0400
ENDCHAR
STARTCHAR 221E
ENCODING 8734
SWIDTH 1000 0
DWIDTH 19 0
BBX 13 5 3 3
BITMAP
78F0
CD98
8208
8508
78F0
ENDCHAR
STARTCHAR 222B
ENCODING 8747
SWIDTH 473 0
DWIDTH 9 0
BBX 8 18 1 -4
BITMAP
07
0B
08
18
18
18
18
18
18
18
18
10
10
10
10
10
D0
E0
ENDCHAR
STARTCHAR 2248
ENCODING 8776
SWIDTH 1000 0
DWIDTH 19 0
BBX 11 5 4 4
BITMAP
FC20
83C0
0000
FC20
87C0
ENDCHAR
STARTCHAR 2260
ENCODING 8800
SWIDTH 1000 0
DWIDTH 19 0
BBX 11 9 4 1
BITMAP
0040
0080
FFE0
0200
0400
0800
FFE0
2000
4000
ENDCHAR
STARTCHAR 2264
ENCODING 8804
SWIDTH 1000 0
DWIDTH 19 0
BBX 11 10 4 1
BITMAP
00E0
0F00
7800
8000
7000
0E00
01E0
0020
0000
FFE0
ENDCHAR
STARTCHAR 2265
ENCODING 8805
SWIDTH 1000 0
DWIDTH 19 0
BBX 11 10 4 1
BITMAP
E000
1C00
03C0
0020
01C0
0E00
F000
8000
0000
FFE0
ENDCHAR
STARTCHAR 25CA
ENCODING 9674
SWIDTH 526 0
DWIDTH 10 0
BBX 9 15 1 0
BITMAP
1800
1800
3400
2400
4200
4200
8100
8180
8100
4300
4200
2600
2400
1800
1800
ENDCHAR
STARTCHAR FB01
ENCODING 64257
SWIDTH 631 0
DWIDTH 12 0
BBX 10 14 1 0
BITMAP
1CC0
3000
3000
3000
FCC0
30C0
30C0
30C0
30C0
30C0
30C0
30C0
30C0
30C0
ENDCHAR
STARTCHAR FB02
ENCODING 64258
SWIDTH 631 0
DWIDTH 12 0
BBX 10 14 1 0
BITMAP
1CC0
30C0
30C0
30C0
FCC0
30C0
30C0
30C0
30C0
30C0
30C0
30C0
30C0
30C0
ENDCHAR
ENDFONT
